<!DOCTYPE svg PUBLIC "-//W3C//DTD SVG 1.1//EN" "http://www.w3.org/Graphics/SVG/1.1/DTD/svg11.dtd">
<!-- Uploaded to: SVG Repo, www.svgrepo.com, Transformed by: SVG Repo Mixer Tools -->
<svg fill="#ffff" version="1.1" id="Capa_1" xmlns="http://www.w3.org/2000/svg" xmlns:xlink="http://www.w3.org/1999/xlink" width="256px" height="256px" viewBox="-21.28 -21.28 167.75 167.75" xml:space="preserve" stroke="#ffff" transform="rotate(0)">
<g id="SVGRepo_bgCarrier" stroke-width="0" transform="translate(0,0), scale(1)">
<rect x="-21.28" y="-21.28" width="167.75" height="167.75" rx="83.875" fill="#086f91" strokewidth="0"/>
</g>
<g id="SVGRepo_tracerCarrier" stroke-linecap="round" stroke-linejoin="round" stroke="#CCCCCC" stroke-width="0.7511699999999999"/>
<g id="SVGRepo_iconCarrier"> <g> <g> <circle cx="112.621" cy="78.512" r="12.574"/> <path d="M99.238,75.477c-0.948-3.729-3.782-7.652-7.997-8.485L65.693,44.22c-1.747-1.558-4.298-1.625-6.115-0.302l-0.002-4.04 c-0.001-3.188-2.583-5.768-5.769-5.768c-0.001,0-0.002,0-0.002,0c-3.187,0.002-5.768,2.586-5.767,5.771l0.016,37.04L5.768,76.936 C2.582,76.936,0,79.52,0,82.707c0.001,3.188,2.584,5.769,5.77,5.769h0.001l50.968-0.018c1.432,1.051,3.176,1.7,5.214,1.684 l27.755-0.239c5.151-0.044,8.567-4.595,9.562-8.806c0,0,0.386-1.328,0.342-2.735c-0.042-1.349-0.367-2.847-0.367-2.847 L99.238,75.477z M76.51,66.938l-14.754,0.127c-0.761,0.007-1.483,0.109-2.167,0.293L59.581,51.85L76.51,66.938z"/> </g> </g> </g>
</svg>